HIERARCHY
ROOT Pelvis
{
	OFFSET 0.000000 0.000000 0.000000
	CHANNELS 6 Xposition Yposition Zposition Xrotation Yrotation Zrotation
	JOINT LeftUpLeg_virtual
	{
		OFFSET 0.000000 0.000000 0.000000
		CHANNELS 3 Xrotation Yrotation Zrotation
		JOINT LeftUpLeg
		{
			OFFSET 18.735201 -5.666702 -4.541200
			CHANNELS 3 Xrotation Yrotation Zrotation
			JOINT LeftLeg
			{
				OFFSET -0.021200 -31.938179 0.493100
				CHANNELS 3 Xrotation Yrotation Zrotation
				JOINT LeftFoot
				{
					OFFSET 0.021200 -31.938179 -4.336299
					CHANNELS 3 Xrotation Yrotation Zrotation
					JOINT LeftToeBase
					{
						OFFSET 0.943001 -26.722000 15.023500
						CHANNELS 3 Xrotation Yrotation Zrotation
						End Site
						{
							OFFSET 0 0 0
						}
					}
				}
			}
		}
	}
	JOINT RightUpLeg_virtual
	{
		OFFSET 0.000000 0.000000 0.000000
		CHANNELS 3 Xrotation Yrotation Zrotation
		JOINT RightUpLeg
		{
			OFFSET -18.735201 -5.666702 -4.541200
			CHANNELS 3 Xrotation Yrotation Zrotation
			JOINT RightLeg
			{
				OFFSET 0.018946 -31.938133 0.493100
				CHANNELS 3 Xrotation Yrotation Zrotation
				JOINT RightFoot
				{
					OFFSET -0.018946 -31.938126 -4.336299
					CHANNELS 3 Xrotation Yrotation Zrotation
					JOINT RightToeBase
					{
						OFFSET -0.943001 -26.722004 15.023500
						CHANNELS 3 Xrotation Yrotation Zrotation
						End Site
						{
							OFFSET 0 0 0
						}
					}
				}
			}
		}
	}
	JOINT Hips_virtual
	{
		OFFSET 0.000000 0.000000 0.000000
		CHANNELS 3 Xrotation Yrotation Zrotation
		JOINT Hips
		{
			OFFSET -0.000000 -0.000000 -0.000000
			CHANNELS 3 Xrotation Yrotation Zrotation
			JOINT Spine
			{
				OFFSET 0.000000 10.199997 -0.299500
				CHANNELS 3 Xrotation Yrotation Zrotation
				JOINT Spine1
				{
					OFFSET 0.000000 11.900002 -1.516600
					CHANNELS 3 Xrotation Yrotation Zrotation
					JOINT Spine2
					{
						OFFSET 0.000000 13.600006 -2.842500
						CHANNELS 3 Xrotation Yrotation Zrotation
						JOINT Neck_virtual
						{
							OFFSET 0.000000 0.000000 0.000000
							CHANNELS 3 Xrotation Yrotation Zrotation
							JOINT Neck
							{
								OFFSET 0.000000 9.624100 -2.890100
								CHANNELS 3 Xrotation Yrotation Zrotation
								JOINT Head
								{
									OFFSET 0.000000 14.068802 -1.351900
									CHANNELS 3 Xrotation Yrotation Zrotation
									End Site
									{
										OFFSET 0 0 0
									}
								}
							}
						}
						JOINT LeftShoulder_virtual
						{
							OFFSET 0.000000 0.000000 0.000000
							CHANNELS 3 Xrotation Yrotation Zrotation
							JOINT LeftShoulder
							{
								OFFSET 15.263000 10.923401 -0.547700
								CHANNELS 3 Xrotation Yrotation Zrotation
								JOINT LeftArm
								{
									OFFSET 25.438599 -2.830597 -13.032500
									CHANNELS 3 Xrotation Yrotation Zrotation
									JOINT LeftForeArm
									{
										OFFSET 29.960503 0.000000 0.000000
										CHANNELS 3 Xrotation Yrotation Zrotation
										JOINT LeftHand
										{
											OFFSET 27.849251 0.000000 0.000000
											CHANNELS 3 Xrotation Yrotation Zrotation
											End Site
											{
												OFFSET 0 0 0
											}
										}
									}
								}
							}
						}
						JOINT RightShoulder_virtual
						{
							OFFSET 0.000000 0.000000 0.000000
							CHANNELS 3 Xrotation Yrotation Zrotation
							JOINT RightShoulder
							{
								OFFSET -15.263000 10.923401 -0.547700
								CHANNELS 3 Xrotation Yrotation Zrotation
								JOINT RightArm
								{
									OFFSET -25.438599 -2.830597 -13.032500
									CHANNELS 3 Xrotation Yrotation Zrotation
									JOINT RightForeArm
									{
										OFFSET -29.960503 0.000000 0.000000
										CHANNELS 3 Xrotation Yrotation Zrotation
										JOINT RightHand
										{
											OFFSET -27.849251 0.000000 0.000000
											CHANNELS 3 Xrotation Yrotation Zrotation
											End Site
											{
												OFFSET 0 0 0
											}
										}
									}
								}
							}
						}
					}
				}
			}
		}
	}
}
MOTION
Frames: 12
Frame Time: 0.03333333
0.162033 107.568550 3.516537 0.000000 0.000000 0.000000 -33.343891 -3.288464 2.299911 -79.757389 0.394624 20.187109 42.982609 13.883048 -10.185171 -10.086921 17.491008 -10.586232 0.000000 0.000000 0.000000 -38.608221 1.600409 -0.671861 -76.754087 3.095040 -14.398747 48.606659 -18.029874 7.208589 -8.042347 -22.973659 8.946734 0.000000 0.000000 0.000000 -22.790139 -10.841004 0.070482 -72.157479 8.353356 11.862979 3.281986 -0.310394 -0.969737 0.522906 0.389107 -0.666517 0.000000 0.000000 0.000000 1.828498 0.057086 -2.538510 -1.311808 1.275557 -1.759656 0.000000 0.000000 0.000000 1.939631 -0.370738 0.333185 0.980174 -2.488632 -6.285030 7.222811 -37.522471 -49.568295 27.029104 -71.705197 16.256103 0.000000 0.000000 0.000000 1.606514 -0.149316 -0.407456 1.027049 3.377382 5.395804 -14.308986 20.884109 71.916387 -167.223754 65.268393 173.703226 0.000000 0.000000 0.000000 
0.145363 107.564041 3.475152 0.000000 0.000000 0.000000 -33.303931 -3.445065 2.356304 -79.711272 0.321367 20.241247 42.967535 13.941400 -10.234692 -10.094240 17.566985 -10.629483 0.000000 0.000000 0.000000 -38.646289 1.642795 -0.769843 -76.777473 3.156204 -14.462056 48.712786 -18.100775 7.308400 -7.920141 -23.091608 9.019348 0.000000 0.000000 0.000000 -22.880381 -10.995945 0.087046 -71.981403 8.416094 11.982246 3.285372 -0.332337 -0.978944 0.531201 0.396889 -0.653096 0.000000 0.000000 0.000000 1.861377 0.031423 -2.558092 -1.315973 1.292317 -1.763208 0.000000 0.000000 0.000000 1.907673 -0.398869 0.313565 0.957875 -2.435993 -6.271488 7.167445 -37.660440 -49.497008 27.399280 -71.938715 16.639768 0.000000 0.000000 0.000000 1.592647 -0.124635 -0.427759 1.054041 3.309358 5.405499 -14.196319 20.674096 72.006108 -167.129948 64.735276 173.639760 0.000000 0.000000 0.000000 
0.113205 107.556061 3.394292 0.000000 0.000000 0.000000 -33.239922 -3.712314 2.457145 -79.636611 0.192851 20.337209 42.948773 14.043307 -10.325571 -10.100401 17.701806 -10.711585 0.000000 0.000000 0.000000 -38.724044 1.706332 -0.940243 -76.829328 3.259661 -14.568609 48.905794 -18.214313 7.486141 -7.694772 -23.291066 9.157958 0.000000 0.000000 0.000000 -23.057861 -11.323308 0.112574 -71.635181 8.512616 12.240292 3.282115 -0.367125 -0.990105 0.545801 0.408983 -0.627744 0.000000 0.000000 0.000000 1.917285 -0.013592 -2.594797 -1.324259 1.322829 -1.769736 0.000000 0.000000 0.000000 1.852524 -0.450821 0.278678 0.920265 -2.336611 -6.233858 7.086571 -37.901410 -49.342782 28.121265 -72.377213 17.392353 0.000000 0.000000 0.000000 1.570112 -0.076888 -0.464040 1.102064 3.184157 5.427770 -13.975631 20.254105 72.164077 -166.949849 63.801302 173.522267 0.000000 0.000000 0.000000 
0.068311 107.545639 3.279609 0.000000 0.000000 0.000000 -33.177364 -4.017796 2.582944 -79.561158 0.037664 20.454759 42.947072 14.163915 -10.444122 -10.089310 17.867047 -10.825173 0.000000 0.000000 0.000000 -38.840195 1.761512 -1.140063 -76.914002 3.375485 -14.685909 49.150526 -18.327503 7.706371 -7.400941 -23.515163 9.350367 0.000000 0.000000 0.000000 -23.313293 -11.843366 0.136049 -71.134030 8.604600 12.668528 3.258446 -0.400629 -0.992825 0.562341 0.419913 -0.593216 0.000000 0.000000 0.000000 1.979885 -0.067604 -2.643935 -1.336714 1.362172 -1.778016 0.000000 0.000000 0.000000 1.788415 -0.519292 0.236136 0.879469 -2.200958 -6.157740 7.032207 -38.185194 -49.090458 29.156698 -72.965900 18.479364 0.000000 0.000000 0.000000 1.547191 -0.008873 -0.509280 1.161155 3.020861 5.467999 -13.660812 19.632383 72.354810 -166.699318 62.676049 173.366443 0.000000 0.000000 0.000000 
0.015328 107.533073 3.142109 0.000000 0.000000 0.000000 -33.140669 -4.291243 2.712785 -79.510997 -0.115365 20.572212 42.987022 14.276047 -10.574688 -10.040795 18.032022 -10.961249 0.000000 0.000000 0.000000 -38.984336 1.787952 -1.322593 -77.027192 3.474447 -14.781238 49.402099 -18.401593 7.932127 -7.083148 -23.709475 9.580377 0.000000 0.000000 0.000000 -23.627532 -12.557176 0.148980 -70.505878 8.669676 13.294868 3.205391 -0.419705 -0.979416 0.574179 0.424448 -0.553211 0.000000 0.000000 0.000000 2.032043 -0.119638 -2.699161 -1.353504 1.405088 -1.786214 0.000000 0.000000 0.000000 1.730376 -0.596001 0.194906 0.849319 -2.042183 -6.034300 7.061587 -38.442180 -48.734943 30.438803 -73.630703 19.834591 0.000000 0.000000 0.000000 1.532161 0.075903 -0.556089 1.220404 2.842484 5.532889 -13.278767 18.836569 72.539662 -166.403789 61.569825 173.190976 0.000000 0.000000 0.000000 
-0.039437 107.518730 2.997646 0.000000 0.000000 0.000000 -33.142294 -4.488136 2.829118 -79.499311 -0.245109 20.672044 43.087210 14.358407 -10.702241 -9.938175 18.172282 -11.109074 0.000000 0.000000 0.000000 -39.133542 1.785882 -1.451846 -77.150900 3.538278 -14.833364 49.613360 -18.416473 8.134608 -6.788978 -23.839933 9.829077 0.000000 0.000000 0.000000 -23.971645 -13.428919 0.149572 -69.791597 8.715176 14.123243 3.124358 -0.417127 -0.949235 0.573829 0.419569 -0.511990 0.000000 0.000000 0.000000 2.061627 -0.161172 -2.753530 -1.374651 1.447200 -1.792196 0.000000 0.000000 0.000000 1.690487 -0.673511 0.163199 0.841291 -1.874470 -5.866485 7.212570 -38.609502 -48.294372 31.857607 -74.290957 21.344655 0.000000 0.000000 0.000000 1.530654 0.173334 -0.598530 1.271049 2.671038 5.628499 -12.867404 17.919763 72.686825 -166.096554 60.635039 173.014757 0.000000 0.000000 0.000000 
-0.089294 107.504669 2.864176 0.000000 0.000000 0.000000 -33.176650 -4.598498 2.919915 -79.520874 -0.340859 20.743938 43.250527 14.401242 -10.813794 -9.776624 18.274740 -11.255508 0.000000 0.000000 0.000000 -39.255501 1.775988 -1.512141 -77.255546 3.564345 -14.838798 49.742246 -18.374916 8.296767 -6.562759 -23.898818 10.075267 0.000000 0.000000 0.000000 -24.312238 -14.384829 0.142621 -69.040945 8.773373 15.117738 3.026970 -0.393229 -0.909117 0.555618 0.405175 -0.473824 0.000000 0.000000 0.000000 2.065042 -0.187796 -2.800881 -1.399615 1.485443 -1.794076 0.000000 0.000000 0.000000 1.676192 -0.746191 0.146877 0.861305 -1.711835 -5.668534 7.483155 -38.644637 -47.815026 33.252831 -74.875758 22.844312 0.000000 0.000000 0.000000 1.544466 0.278516 -0.632860 1.308331 2.523160 5.758176 -12.467671 16.954782 72.777920 -165.811954 59.945032 172.853892 0.000000 0.000000 0.000000 
-0.129250 107.495071 2.758314 0.000000 0.000000 0.000000 -33.222074 -4.640224 2.979037 -79.554840 -0.400786 20.785138 43.460757 14.407615 -10.899726 -9.567259 18.338551 -11.385954 0.000000 0.000000 0.000000 -39.317663 1.789088 -1.509351 -77.308971 3.563557 -14.810261 49.757423 -18.297416 8.411240 -6.440372 -23.899527 10.295465 0.000000 0.000000 0.000000 -24.619991 -15.331693 0.135195 -68.306297 8.882782 16.202416 2.930145 -0.354086 -0.869977 0.518376 0.383282 -0.442244 0.000000 0.000000 0.000000 2.046926 -0.199266 -2.837049 -1.427096 1.517776 -1.790698 0.000000 0.000000 0.000000 1.690257 -0.810156 0.148854 0.908620 -1.567017 -5.459094 7.827528 -38.533619 -47.363008 34.433617 -75.337649 24.139210 0.000000 0.000000 0.000000 1.571744 0.385642 -0.657445 1.331612 2.407373 5.921145 -12.114377 16.017161 72.810267 -165.575206 59.506001 172.717521 0.000000 0.000000 0.000000 
-0.157931 107.494370 2.693299 0.000000 0.000000 0.000000 -33.250502 -4.644005 3.005930 -79.574538 -0.428844 20.799044 43.688738 14.390037 -10.955658 -9.333770 18.372326 -11.487970 0.000000 0.000000 0.000000 -39.298094 1.852559 -1.464398 -77.287675 3.553608 -14.769307 49.642587 -18.212199 8.475825 -6.444768 -23.865586 10.464894 0.000000 0.000000 0.000000 -24.877161 -16.186736 0.130751 -67.637164 9.067350 17.281210 2.849955 -0.308037 -0.841534 0.466410 0.356375 -0.419331 0.000000 0.000000 0.000000 2.016444 -0.198447 -2.860385 -1.455381 1.542698 -1.781760 0.000000 0.000000 0.000000 1.731472 -0.862673 0.169455 0.977113 -1.449421 -5.252335 8.173126 -38.292209 -47.004836 35.228842 -75.657732 25.057358 0.000000 0.000000 0.000000 1.608258 0.488490 -0.672431 1.342955 2.324092 6.112216 -11.830725 15.164374 72.794087 -165.394397 59.284082 172.604153 0.000000 0.000000 0.000000 
-0.178124 107.504478 2.678335 0.000000 0.000000 0.000000 -33.239788 -4.639086 3.005293 -79.559041 -0.432387 20.793058 43.905402 14.364299 -10.984292 -9.103085 18.389279 -11.556257 0.000000 0.000000 0.000000 -39.192575 1.979954 -1.403057 -77.184908 3.551205 -14.737229 49.399210 -18.145509 8.489964 -6.582248 -23.820121 10.560250 0.000000 0.000000 0.000000 -25.079290 -16.901117 0.126177 -67.077690 9.323622 18.268109 2.797321 -0.262506 -0.828443 0.408158 0.325968 -0.405496 0.000000 0.000000 0.000000 1.982694 -0.189820 -2.871393 -1.482989 1.559029 -1.767596 0.000000 0.000000 0.000000 1.795576 -0.901558 0.207237 1.058139 -1.362503 -5.052250 8.448855 -37.958725 -46.787059 35.540524 -75.840877 25.501389 0.000000 0.000000 0.000000 1.649003 0.581364 -0.679407 1.345171 2.268034 6.322297 -11.627769 14.422718 72.744937 -165.260593 59.231619 172.501987 0.000000 0.000000 0.000000 
-0.195626 107.523514 2.718156 0.000000 0.000000 0.000000 -33.182582 -4.645103 2.986058 -79.501203 -0.420657 20.776278 44.093594 14.343421 -10.995653 -8.895879 18.402338 -11.595862 0.000000 0.000000 0.000000 -39.014703 2.167891 -1.346614 -77.011831 3.566548 -14.728198 49.047496 -18.115333 8.453846 -6.840478 -23.779517 10.563934 0.000000 0.000000 0.000000 -25.231590 -17.466156 0.113652 -66.665925 9.620409 19.110661 2.776562 -0.222530 -0.829652 0.353256 0.292409 -0.399959 0.000000 0.000000 0.000000 1.951549 -0.178004 -2.871954 -1.509141 1.566099 -1.748892 0.000000 0.000000 0.000000 1.876206 -0.925011 0.259636 1.143562 -1.301857 -4.853257 8.608315 -37.580302 -46.725894 35.367396 -75.905743 25.469762 0.000000 0.000000 0.000000 1.689603 0.660093 -0.681034 1.340258 2.231709 6.539430 -11.506705 13.788864 72.674483 -165.156597 59.303555 172.394986 0.000000 0.000000 0.000000 
-0.216631 107.547600 2.811169 0.000000 0.000000 0.000000 -33.087342 -4.670096 2.959452 -79.408387 -0.403332 20.757467 44.251788 14.334247 -11.004849 -8.722257 18.420706 -11.621426 0.000000 0.000000 0.000000 -38.790263 2.400569 -1.306330 -76.792657 3.601831 -14.746489 48.624397 -18.129142 8.369891 -7.189875 -23.751829 10.468695 0.000000 0.000000 0.000000 -25.342459 -17.900758 0.086194 -66.433534 9.908471 19.795092 2.786421 -0.190678 -0.840878 0.309524 0.255696 -0.401614 0.000000 0.000000 0.000000 1.925361 -0.166673 -2.864654 -1.533756 1.564129 -1.726577 0.000000 0.000000 0.000000 1.966043 -0.931953 0.323296 1.227699 -1.255699 -4.646089 8.638600 -37.198105 -46.809602 34.788623 -75.875567 25.039079 0.000000 0.000000 0.000000 1.727115 0.722491 -0.680436 1.328824 2.207884 6.750224 -11.461036 13.242475 72.584666 -165.068201 59.463395 172.271045 0.000000 0.000000 0.000000 
